<?xml version="1.0" standalone="no"?>
<!DOCTYPE svg PUBLIC "-//W3C//DTD SVG 20010904//EN"
 "http://www.w3.org/TR/2001/REC-SVG-20010904/DTD/svg10.dtd">
<svg version="1.0" xmlns="http://www.w3.org/2000/svg"
 width="48.000000pt" height="47.000000pt" viewBox="0 0 48.000000 47.000000"
 preserveAspectRatio="xMidYMid meet">

<g transform="translate(0.000000,47.000000) scale(0.100000,-0.100000)"
fill="#000000" stroke="none">
<path d="M39 457 c-34 -26 -39 -54 -39 -226 0 -165 1 -171 24 -198 l24 -28
174 -3 c105 -2 184 1 201 7 49 19 59 62 55 248 l-3 165 -28 24 c-28 23 -32 24
-210 24 -127 -1 -187 -4 -198 -13z m186 -77 c19 -38 19 -122 -1 -189 -8 -29
-14 -55 -12 -56 9 -9 71 51 94 91 l27 45 -22 23 c-32 34 -26 96 10 96 26 0 42
-36 34 -77 -5 -27 -3 -33 7 -27 7 4 5 -1 -5 -12 -10 -10 -31 -40 -48 -66 -28
-44 -108 -108 -134 -108 -8 0 -6 22 7 73 26 98 28 191 6 213 -16 16 -18 16
-43 0 -14 -9 -30 -28 -35 -42 -17 -43 -12 -116 10 -152 22 -36 24 -42 11 -42
-17 0 -41 80 -41 136 0 55 19 108 42 117 7 3 28 6 45 6 26 1 35 -5 48 -29z"/>
<path d="M311 348 c-11 -29 6 -69 20 -47 12 19 11 56 -1 64 -6 3 -14 -4 -19
-17z"/>
</g>
</svg>
